<svg xmlns="http://www.w3.org/2000/svg" xmlns:xlink="http://www.w3.org/1999/xlink" width="500" zoomAndPan="magnify" viewBox="0 0 375 374.999991" height="500" preserveAspectRatio="xMidYMid meet" version="1.0"><defs><clipPath id="6aa590f622"><path d="M 42.441406 50.429688 L 332 50.429688 L 332 328.175781 L 42.441406 328.175781 Z M 42.441406 50.429688 " clip-rule="nonzero"/></clipPath><clipPath id="8141be9057"><path d="M 103.191406 50.429688 L 270.371094 50.429688 C 286.484375 50.429688 301.9375 56.832031 313.328125 68.222656 C 324.722656 79.617188 331.121094 95.070312 331.121094 111.179688 L 331.121094 267.425781 C 331.121094 283.539062 324.722656 298.988281 313.328125 310.382812 C 301.9375 321.773438 286.484375 328.175781 270.371094 328.175781 L 103.191406 328.175781 C 87.082031 328.175781 71.628906 321.773438 60.234375 310.382812 C 48.84375 298.988281 42.441406 283.539062 42.441406 267.425781 L 42.441406 111.179688 C 42.441406 77.628906 69.640625 50.429688 103.191406 50.429688 Z M 103.191406 50.429688 " clip-rule="nonzero"/></clipPath><clipPath id="308f8f228c"><path d="M 0.441406 0.429688 L 289.035156 0.429688 L 289.035156 278.175781 L 0.441406 278.175781 Z M 0.441406 0.429688 " clip-rule="nonzero"/></clipPath><clipPath id="f74b9dd0f0"><path d="M 61.191406 0.429688 L 228.371094 0.429688 C 244.484375 0.429688 259.9375 6.832031 271.328125 18.222656 C 282.722656 29.617188 289.121094 45.070312 289.121094 61.179688 L 289.121094 217.425781 C 289.121094 233.539062 282.722656 248.988281 271.328125 260.382812 C 259.9375 271.773438 244.484375 278.175781 228.371094 278.175781 L 61.191406 278.175781 C 45.082031 278.175781 29.628906 271.773438 18.234375 260.382812 C 6.84375 248.988281 0.441406 233.539062 0.441406 217.425781 L 0.441406 61.179688 C 0.441406 27.628906 27.640625 0.429688 61.191406 0.429688 Z M 61.191406 0.429688 " clip-rule="nonzero"/></clipPath><linearGradient x1="0" gradientTransform="matrix(1.084941, 0, 0, 1.084941, 0.442846, 0.430821)" y1="128" x2="265.999852" gradientUnits="userSpaceOnUse" y2="128" id="8fe6504a37"><stop stop-opacity="1" stop-color="rgb(28.62854%, 0%, 57.249451%)" offset="0"/><stop stop-opacity="1" stop-color="rgb(28.78418%, 0.0274658%, 57.199097%)" offset="0.0078125"/><stop stop-opacity="1" stop-color="rgb(29.096985%, 0.0823975%, 57.096863%)" offset="0.015625"/><stop stop-opacity="1" stop-color="rgb(29.40979%, 0.137329%, 56.996155%)" offset="0.0234375"/><stop stop-opacity="1" stop-color="rgb(29.722595%, 0.192261%, 56.895447%)" offset="0.03125"/><stop stop-opacity="1" stop-color="rgb(30.033875%, 0.247192%, 56.794739%)" offset="0.0390625"/><stop stop-opacity="1" stop-color="rgb(30.34668%, 0.302124%, 56.692505%)" offset="0.046875"/><stop stop-opacity="1" stop-color="rgb(30.659485%, 0.357056%, 56.591797%)" offset="0.0546875"/><stop stop-opacity="1" stop-color="rgb(30.97229%, 0.411987%, 56.491089%)" offset="0.0625"/><stop stop-opacity="1" stop-color="rgb(31.283569%, 0.468445%, 56.390381%)" offset="0.0703125"/><stop stop-opacity="1" stop-color="rgb(31.596375%, 0.523376%, 56.289673%)" offset="0.078125"/><stop stop-opacity="1" stop-color="rgb(31.90918%, 0.578308%, 56.187439%)" offset="0.0859375"/><stop stop-opacity="1" stop-color="rgb(32.221985%, 0.63324%, 56.086731%)" offset="0.09375"/><stop stop-opacity="1" stop-color="rgb(32.533264%, 0.688171%, 55.986023%)" offset="0.101563"/><stop stop-opacity="1" stop-color="rgb(32.846069%, 0.743103%, 55.885315%)" offset="0.109375"/><stop stop-opacity="1" stop-color="rgb(33.158875%, 0.798035%, 55.783081%)" offset="0.117188"/><stop stop-opacity="1" stop-color="rgb(33.47168%, 0.854492%, 55.682373%)" offset="0.125"/><stop stop-opacity="1" stop-color="rgb(33.782959%, 0.909424%, 55.581665%)" offset="0.132812"/><stop stop-opacity="1" stop-color="rgb(34.095764%, 0.964355%, 55.480957%)" offset="0.140625"/><stop stop-opacity="1" stop-color="rgb(34.408569%, 1.019287%, 55.378723%)" offset="0.148438"/><stop stop-opacity="1" stop-color="rgb(34.721375%, 1.074219%, 55.278015%)" offset="0.15625"/><stop stop-opacity="1" stop-color="rgb(35.032654%, 1.12915%, 55.177307%)" offset="0.164062"/><stop stop-opacity="1" stop-color="rgb(35.345459%, 1.184082%, 55.076599%)" offset="0.171875"/><stop stop-opacity="1" stop-color="rgb(35.658264%, 1.24054%, 54.974365%)" offset="0.179688"/><stop stop-opacity="1" stop-color="rgb(35.969543%, 1.295471%, 54.873657%)" offset="0.1875"/><stop stop-opacity="1" stop-color="rgb(36.282349%, 1.350403%, 54.772949%)" offset="0.195313"/><stop stop-opacity="1" stop-color="rgb(36.595154%, 1.405334%, 54.672241%)" offset="0.203125"/><stop stop-opacity="1" stop-color="rgb(36.907959%, 1.460266%, 54.571533%)" offset="0.210938"/><stop stop-opacity="1" stop-color="rgb(37.219238%, 1.515198%, 54.469299%)" offset="0.21875"/><stop stop-opacity="1" stop-color="rgb(37.532043%, 1.570129%, 54.368591%)" offset="0.226562"/><stop stop-opacity="1" stop-color="rgb(37.844849%, 1.625061%, 54.267883%)" offset="0.234375"/><stop stop-opacity="1" stop-color="rgb(38.157654%, 1.681519%, 54.167175%)" offset="0.242187"/><stop stop-opacity="1" stop-color="rgb(38.468933%, 1.73645%, 54.064941%)" offset="0.25"/><stop stop-opacity="1" stop-color="rgb(38.781738%, 1.791382%, 53.964233%)" offset="0.257812"/><stop stop-opacity="1" stop-color="rgb(39.094543%, 1.846313%, 53.863525%)" offset="0.265625"/><stop stop-opacity="1" stop-color="rgb(39.407349%, 1.901245%, 53.762817%)" offset="0.273438"/><stop stop-opacity="1" stop-color="rgb(39.718628%, 1.956177%, 53.660583%)" offset="0.28125"/><stop stop-opacity="1" stop-color="rgb(40.031433%, 2.011108%, 53.559875%)" offset="0.289062"/><stop stop-opacity="1" stop-color="rgb(40.344238%, 2.067566%, 53.459167%)" offset="0.296875"/><stop stop-opacity="1" stop-color="rgb(40.657043%, 2.122498%, 53.358459%)" offset="0.304688"/><stop stop-opacity="1" stop-color="rgb(40.968323%, 2.177429%, 53.257751%)" offset="0.3125"/><stop stop-opacity="1" stop-color="rgb(41.281128%, 2.232361%, 53.155518%)" offset="0.320312"/><stop stop-opacity="1" stop-color="rgb(41.593933%, 2.287292%, 53.05481%)" offset="0.328125"/><stop stop-opacity="1" stop-color="rgb(41.906738%, 2.342224%, 52.954102%)" offset="0.335938"/><stop stop-opacity="1" stop-color="rgb(42.218018%, 2.397156%, 52.853394%)" offset="0.34375"/><stop stop-opacity="1" stop-color="rgb(42.530823%, 2.453613%, 52.75116%)" offset="0.351562"/><stop stop-opacity="1" stop-color="rgb(42.843628%, 2.508545%, 52.650452%)" offset="0.359375"/><stop stop-opacity="1" stop-color="rgb(43.154907%, 2.563477%, 52.549744%)" offset="0.367188"/><stop stop-opacity="1" stop-color="rgb(43.467712%, 2.618408%, 52.449036%)" offset="0.375"/><stop stop-opacity="1" stop-color="rgb(43.780518%, 2.67334%, 52.346802%)" offset="0.382812"/><stop stop-opacity="1" stop-color="rgb(44.093323%, 2.728271%, 52.246094%)" offset="0.390625"/><stop stop-opacity="1" stop-color="rgb(44.404602%, 2.783203%, 52.145386%)" offset="0.398438"/><stop stop-opacity="1" stop-color="rgb(44.717407%, 2.838135%, 52.044678%)" offset="0.40625"/><stop stop-opacity="1" stop-color="rgb(45.030212%, 2.894592%, 51.942444%)" offset="0.414063"/><stop stop-opacity="1" stop-color="rgb(45.343018%, 2.949524%, 51.841736%)" offset="0.421875"/><stop stop-opacity="1" stop-color="rgb(45.654297%, 3.004456%, 51.741028%)" offset="0.429688"/><stop stop-opacity="1" stop-color="rgb(45.967102%, 3.059387%, 51.64032%)" offset="0.4375"/><stop stop-opacity="1" stop-color="rgb(46.279907%, 3.114319%, 51.539612%)" offset="0.445312"/><stop stop-opacity="1" stop-color="rgb(46.592712%, 3.16925%, 51.437378%)" offset="0.453125"/><stop stop-opacity="1" stop-color="rgb(46.903992%, 3.224182%, 51.33667%)" offset="0.460938"/><stop stop-opacity="1" stop-color="rgb(47.216797%, 3.28064%, 51.235962%)" offset="0.46875"/><stop stop-opacity="1" stop-color="rgb(47.529602%, 3.335571%, 51.135254%)" offset="0.476562"/><stop stop-opacity="1" stop-color="rgb(47.842407%, 3.390503%, 51.03302%)" offset="0.484375"/><stop stop-opacity="1" stop-color="rgb(48.153687%, 3.445435%, 50.932312%)" offset="0.492188"/><stop stop-opacity="1" stop-color="rgb(48.466492%, 3.500366%, 50.831604%)" offset="0.5"/><stop stop-opacity="1" stop-color="rgb(48.779297%, 3.555298%, 50.730896%)" offset="0.507812"/><stop stop-opacity="1" stop-color="rgb(49.092102%, 3.610229%, 50.628662%)" offset="0.515625"/><stop stop-opacity="1" stop-color="rgb(49.403381%, 3.666687%, 50.527954%)" offset="0.523438"/><stop stop-opacity="1" stop-color="rgb(49.716187%, 3.721619%, 50.427246%)" offset="0.53125"/><stop stop-opacity="1" stop-color="rgb(50.028992%, 3.77655%, 50.326538%)" offset="0.539062"/><stop stop-opacity="1" stop-color="rgb(50.341797%, 3.831482%, 50.22583%)" offset="0.546875"/><stop stop-opacity="1" stop-color="rgb(50.653076%, 3.886414%, 50.123596%)" offset="0.554688"/><stop stop-opacity="1" stop-color="rgb(50.965881%, 3.941345%, 50.022888%)" offset="0.5625"/><stop stop-opacity="1" stop-color="rgb(51.278687%, 3.996277%, 49.92218%)" offset="0.570312"/><stop stop-opacity="1" stop-color="rgb(51.589966%, 4.051208%, 49.821472%)" offset="0.578125"/><stop stop-opacity="1" stop-color="rgb(51.902771%, 4.107666%, 49.719238%)" offset="0.585938"/><stop stop-opacity="1" stop-color="rgb(52.215576%, 4.162598%, 49.61853%)" offset="0.59375"/><stop stop-opacity="1" stop-color="rgb(52.528381%, 4.217529%, 49.517822%)" offset="0.601563"/><stop stop-opacity="1" stop-color="rgb(52.839661%, 4.272461%, 49.417114%)" offset="0.609375"/><stop stop-opacity="1" stop-color="rgb(53.152466%, 4.327393%, 49.31488%)" offset="0.617188"/><stop stop-opacity="1" stop-color="rgb(53.465271%, 4.382324%, 49.214172%)" offset="0.625"/><stop stop-opacity="1" stop-color="rgb(53.778076%, 4.437256%, 49.113464%)" offset="0.632813"/><stop stop-opacity="1" stop-color="rgb(54.089355%, 4.493713%, 49.012756%)" offset="0.640625"/><stop stop-opacity="1" stop-color="rgb(54.402161%, 4.548645%, 48.910522%)" offset="0.648438"/><stop stop-opacity="1" stop-color="rgb(54.714966%, 4.603577%, 48.809814%)" offset="0.65625"/><stop stop-opacity="1" stop-color="rgb(55.027771%, 4.658508%, 48.709106%)" offset="0.664063"/><stop stop-opacity="1" stop-color="rgb(55.33905%, 4.71344%, 48.608398%)" offset="0.671875"/><stop stop-opacity="1" stop-color="rgb(55.651855%, 4.768372%, 48.50769%)" offset="0.679687"/><stop stop-opacity="1" stop-color="rgb(55.964661%, 4.823303%, 48.405457%)" offset="0.6875"/><stop stop-opacity="1" stop-color="rgb(56.277466%, 4.879761%, 48.304749%)" offset="0.695312"/><stop stop-opacity="1" stop-color="rgb(56.588745%, 4.934692%, 48.204041%)" offset="0.703125"/><stop stop-opacity="1" stop-color="rgb(56.90155%, 4.989624%, 48.103333%)" offset="0.710937"/><stop stop-opacity="1" stop-color="rgb(57.214355%, 5.044556%, 48.001099%)" offset="0.71875"/><stop stop-opacity="1" stop-color="rgb(57.527161%, 5.099487%, 47.900391%)" offset="0.726562"/><stop stop-opacity="1" stop-color="rgb(57.83844%, 5.154419%, 47.799683%)" offset="0.734375"/><stop stop-opacity="1" stop-color="rgb(58.151245%, 5.209351%, 47.698975%)" offset="0.742188"/><stop stop-opacity="1" stop-color="rgb(58.46405%, 5.264282%, 47.596741%)" offset="0.75"/><stop stop-opacity="1" stop-color="rgb(58.77533%, 5.32074%, 47.496033%)" offset="0.757812"/><stop stop-opacity="1" stop-color="rgb(59.088135%, 5.375671%, 47.395325%)" offset="0.765625"/><stop stop-opacity="1" stop-color="rgb(59.40094%, 5.430603%, 47.294617%)" offset="0.773438"/><stop stop-opacity="1" stop-color="rgb(59.713745%, 5.485535%, 47.193909%)" offset="0.78125"/><stop stop-opacity="1" stop-color="rgb(60.025024%, 5.540466%, 47.091675%)" offset="0.789063"/><stop stop-opacity="1" stop-color="rgb(60.33783%, 5.595398%, 46.990967%)" offset="0.796875"/><stop stop-opacity="1" stop-color="rgb(60.650635%, 5.65033%, 46.890259%)" offset="0.804688"/><stop stop-opacity="1" stop-color="rgb(60.96344%, 5.706787%, 46.789551%)" offset="0.8125"/><stop stop-opacity="1" stop-color="rgb(61.274719%, 5.761719%, 46.687317%)" offset="0.820313"/><stop stop-opacity="1" stop-color="rgb(61.587524%, 5.81665%, 46.586609%)" offset="0.828125"/><stop stop-opacity="1" stop-color="rgb(61.90033%, 5.871582%, 46.485901%)" offset="0.835938"/><stop stop-opacity="1" stop-color="rgb(62.213135%, 5.926514%, 46.385193%)" offset="0.84375"/><stop stop-opacity="1" stop-color="rgb(62.524414%, 5.981445%, 46.282959%)" offset="0.851563"/><stop stop-opacity="1" stop-color="rgb(62.837219%, 6.036377%, 46.182251%)" offset="0.859375"/><stop stop-opacity="1" stop-color="rgb(63.150024%, 6.092834%, 46.081543%)" offset="0.867188"/><stop stop-opacity="1" stop-color="rgb(63.46283%, 6.147766%, 45.980835%)" offset="0.875"/><stop stop-opacity="1" stop-color="rgb(63.774109%, 6.202698%, 45.878601%)" offset="0.882813"/><stop stop-opacity="1" stop-color="rgb(64.086914%, 6.257629%, 45.777893%)" offset="0.890625"/><stop stop-opacity="1" stop-color="rgb(64.399719%, 6.312561%, 45.677185%)" offset="0.898437"/><stop stop-opacity="1" stop-color="rgb(64.712524%, 6.367493%, 45.576477%)" offset="0.90625"/><stop stop-opacity="1" stop-color="rgb(65.023804%, 6.422424%, 45.475769%)" offset="0.914062"/><stop stop-opacity="1" stop-color="rgb(65.336609%, 6.477356%, 45.373535%)" offset="0.921875"/><stop stop-opacity="1" stop-color="rgb(65.649414%, 6.533813%, 45.272827%)" offset="0.929687"/><stop stop-opacity="1" stop-color="rgb(65.960693%, 6.588745%, 45.172119%)" offset="0.9375"/><stop stop-opacity="1" stop-color="rgb(66.273499%, 6.643677%, 45.071411%)" offset="0.945312"/><stop stop-opacity="1" stop-color="rgb(66.586304%, 6.698608%, 44.969177%)" offset="0.953125"/><stop stop-opacity="1" stop-color="rgb(66.899109%, 6.75354%, 44.868469%)" offset="0.960937"/><stop stop-opacity="1" stop-color="rgb(67.210388%, 6.808472%, 44.767761%)" offset="0.96875"/><stop stop-opacity="1" stop-color="rgb(67.523193%, 6.863403%, 44.667053%)" offset="0.976562"/><stop stop-opacity="1" stop-color="rgb(67.835999%, 6.919861%, 44.564819%)" offset="0.984375"/><stop stop-opacity="1" stop-color="rgb(68.148804%, 6.974792%, 44.464111%)" offset="0.992188"/><stop stop-opacity="1" stop-color="rgb(68.460083%, 7.029724%, 44.363403%)" offset="1"/></linearGradient><clipPath id="53b6cc3f9e"><rect x="0" width="290" y="0" height="279"/></clipPath><clipPath id="59a551201d"><path d="M 26 26 L 349 26 L 349 349.441406 L 26 349.441406 Z M 26 26 " clip-rule="nonzero"/></clipPath><clipPath id="9a8b78f653"><path d="M 52.5625 53.28125 L 321 53.28125 L 321 321.78125 L 52.5625 321.78125 Z M 52.5625 53.28125 " clip-rule="nonzero"/></clipPath></defs><g clip-path="url(#6aa590f622)"><g clip-path="url(#8141be9057)"><g transform="matrix(1, 0, 0, 1, 42, 50)"><g clip-path="url(#53b6cc3f9e)"><g clip-path="url(#308f8f228c)"><g clip-path="url(#f74b9dd0f0)"><path fill="url(#8fe6504a37)" d="M 0.441406 0.429688 L 0.441406 278.175781 L 289.035156 278.175781 L 289.035156 0.429688 Z M 0.441406 0.429688 " fill-rule="nonzero"/></g></g></g></g></g></g><g clip-path="url(#59a551201d)"><path fill="#dab4ff" d="M 344.441406 105.957031 L 332.535156 107.257812 L 344.441406 105.925781 L 344.441406 105.871094 C 342.351562 87.878906 333.476562 70.246094 319.449219 56.214844 C 305.425781 42.183594 287.804688 33.316406 269.808594 31.242188 L 269.492188 31.242188 C 214.820312 25.40625 160.148438 25.40625 105.480469 31.242188 L 105.175781 31.242188 C 87.179688 33.332031 69.546875 42.207031 55.515625 56.234375 C 41.484375 70.257812 32.617188 87.878906 30.546875 105.863281 L 30.511719 106.183594 C 24.675781 160.855469 24.675781 215.527344 30.511719 270.199219 L 30.511719 270.507812 C 32.601562 288.496094 41.476562 306.132812 55.5 320.164062 C 69.527344 334.191406 87.179688 343.0625 105.171875 345.136719 L 105.484375 345.171875 C 132.746094 348.082031 160.082031 349.539062 187.496094 349.546875 C 214.910156 349.542969 242.246094 348.089844 269.503906 345.1875 L 269.8125 345.1875 C 287.800781 343.09375 305.4375 334.21875 319.46875 320.195312 C 333.5 306.167969 342.363281 288.496094 344.441406 270.460938 L 344.472656 270.191406 C 350.308594 215.519531 350.308594 160.847656 344.472656 106.179688 Z M 320.671875 267.605469 L 320.671875 267.714844 C 317.648438 293.757812 293.097656 318.308594 267.097656 321.328125 L 266.972656 321.328125 C 240.554688 324.15625 214.0625 325.582031 187.496094 325.597656 C 160.949219 325.589844 134.476562 324.183594 108.074219 321.371094 L 107.96875 321.371094 C 81.925781 318.347656 57.375 293.796875 54.347656 267.757812 L 54.347656 267.65625 C 48.699219 214.6875 48.699219 161.71875 54.347656 108.75 L 54.347656 108.648438 C 57.375 82.605469 81.925781 58.054688 107.976562 55.027344 L 108.0625 55.027344 C 161.011719 49.375 213.964844 49.363281 266.914062 55.003906 L 267.019531 55.003906 C 293.054688 58.027344 317.605469 82.574219 320.636719 108.578125 L 320.636719 108.695312 C 326.292969 161.664062 326.304688 214.632812 320.671875 267.605469 Z M 320.671875 267.605469 " fill-opacity="1" fill-rule="nonzero"/></g><path fill="#ffffff" d="M 156.539062 249.75 C 139.695312 253.710938 136.484375 256.921875 132.523438 273.761719 C 128.5625 256.921875 125.351562 253.710938 108.511719 249.75 C 125.351562 245.785156 128.5625 242.574219 132.523438 225.734375 C 136.484375 242.574219 139.695312 245.785156 156.539062 249.75 Z M 156.539062 249.75 " fill-opacity="1" fill-rule="nonzero"/><g clip-path="url(#9a8b78f653)"><path fill="#ffffff" d="M 320.964844 187.480469 C 196.863281 193.0625 192.34375 197.582031 186.765625 321.679688 C 181.1875 197.582031 176.664062 193.0625 52.5625 187.480469 C 176.664062 181.902344 181.1875 177.382812 186.765625 53.28125 C 192.34375 177.382812 196.867188 181.902344 320.964844 187.480469 Z M 320.964844 187.480469 " fill-opacity="1" fill-rule="nonzero"/></g><path fill="#ffffff" d="M 156.464844 116.601562 C 128.75 117.847656 127.738281 118.859375 126.492188 146.574219 C 125.246094 118.859375 124.238281 117.847656 96.523438 116.601562 C 124.238281 115.355469 125.246094 114.347656 126.492188 86.632812 C 127.738281 114.347656 128.75 115.355469 156.464844 116.601562 Z M 156.464844 116.601562 " fill-opacity="1" fill-rule="nonzero"/><path fill="#ffffff" d="M 306.949219 114.0625 C 266.25 115.890625 264.769531 117.375 262.9375 158.074219 C 261.109375 117.375 259.625 115.894531 218.929688 114.0625 C 259.625 112.234375 261.109375 110.75 262.9375 70.050781 C 264.769531 110.75 266.25 112.234375 306.949219 114.0625 Z M 306.949219 114.0625 " fill-opacity="1" fill-rule="nonzero"/><path fill="#ffffff" d="M 306.949219 84.09375 C 295.863281 84.589844 295.460938 84.996094 294.960938 96.082031 C 294.464844 84.996094 294.058594 84.589844 282.972656 84.09375 C 294.058594 83.59375 294.464844 83.191406 294.960938 72.105469 C 295.460938 83.191406 295.863281 83.59375 306.949219 84.09375 Z M 306.949219 84.09375 " fill-opacity="1" fill-rule="nonzero"/><path fill="#ffffff" d="M 237.808594 70.050781 C 226.722656 70.550781 226.320312 70.953125 225.820312 82.039062 C 225.324219 70.953125 224.917969 70.550781 213.832031 70.050781 C 224.917969 69.554688 225.324219 69.148438 225.820312 58.0625 C 226.320312 69.148438 226.722656 69.554688 237.808594 70.050781 Z M 237.808594 70.050781 " fill-opacity="1" fill-rule="nonzero"/></svg>